<?xml version="1.0" encoding="utf-8"?>
<!-- Generator: Adobe Illustrator 16.0.0, SVG Export Plug-In . SVG Version: 6.00 Build 0)  -->
<!DOCTYPE svg PUBLIC "-//W3C//DTD SVG 1.1//EN" "http://www.w3.org/Graphics/SVG/1.1/DTD/svg11.dtd">
<svg version="1.1" id="Layer_1" xmlns="http://www.w3.org/2000/svg" xmlns:xlink="http://www.w3.org/1999/xlink" x="0px" y="0px"
	 width="320px" height="40px" viewBox="0 0 320 40" enable-background="new 0 0 320 40" xml:space="preserve">
<g enable-background="new    ">
	<path d="M123.212,37.99h-23.06c2.602-1.734,4.576-4.65,5.922-8.748c1.077-3.32,1.615-6.88,1.615-10.678
		c0-2.722-0.12-4.83-0.359-6.326c-0.389-2.333-1.137-4.277-2.243-5.832c-0.748-0.957-1.899-2.378-3.455-4.263h14.267
		c-0.359,0.658-0.897,3.066-1.615,7.224c-0.897,5.024-1.346,9.331-1.346,12.921c0,5.354,1.001,8.03,3.006,8.03
		c1.764,0,3.873-1.75,6.326-5.249c-0.18,1.018-0.269,2.259-0.269,3.724C122.001,33.011,122.405,36.076,123.212,37.99z"/>
	<path d="M142.279,24.777c0,1.941-0.254,3.793-0.763,5.554c-0.628,2.091-1.57,3.837-2.827,5.24
		c-1.496,1.702-3.215,2.554-5.159,2.554c-1.945,0-3.664-0.852-5.16-2.554c-1.256-1.403-2.198-3.149-2.826-5.24
		c-0.509-1.761-0.763-3.612-0.763-5.554c0-1.851,0.224-3.628,0.673-5.33c0.598-2.18,1.525-4.03,2.782-5.554
		c1.555-1.851,3.32-2.777,5.294-2.777c2.003,0,3.769,0.927,5.294,2.777c1.256,1.523,2.183,3.374,2.782,5.554
		C142.055,21.149,142.279,22.927,142.279,24.777z M136.088,24.777c0-1.432-0.075-2.805-0.224-4.118
		c-0.449-3.908-1.227-5.863-2.333-5.863c-1.107,0-1.884,1.955-2.333,5.863c-0.15,1.313-0.224,2.687-0.224,4.118
		c0,1.463,0.074,2.851,0.224,4.164c0.449,3.909,1.226,5.863,2.333,5.863c1.106,0,1.884-1.954,2.333-5.863
		C136.013,27.628,136.088,26.24,136.088,24.777z"/>
	<path d="M166.551,37.99H143.49c2.602-1.734,4.576-4.65,5.922-8.748c1.077-3.32,1.615-6.88,1.615-10.678
		c0-2.722-0.12-4.83-0.359-6.326c-0.389-2.333-1.137-4.277-2.243-5.832c-0.748-0.957-1.899-2.378-3.455-4.263h14.267
		c-0.359,0.658-0.897,3.066-1.615,7.224c-0.897,5.024-1.346,9.331-1.346,12.921c0,5.354,1.001,8.03,3.006,8.03
		c1.764,0,3.874-1.75,6.326-5.249c-0.18,1.018-0.269,2.259-0.269,3.724C165.34,33.011,165.743,36.076,166.551,37.99z"/>
	<path d="M190.643,24.082c0,3.578-0.793,6.68-2.378,9.303c-1.915,3.16-4.547,4.74-7.896,4.74c-2.483,0-4.666-1.225-6.551-3.674
		c-1.496-1.942-2.588-4.317-3.275-7.125c-0.568-2.211-0.852-4.556-0.852-7.035c0-2.449,0.283-4.81,0.852-7.08
		c0.688-2.838,1.779-5.257,3.275-7.259c1.885-2.568,4.067-3.854,6.551-3.854h8.523c-0.27,0.718-0.599,1.631-0.986,2.737
		c-0.689,2.184-1.033,4.486-1.033,6.909c-2.123-2.901-3.992-4.353-5.607-4.353c-1.586,0-2.736,1.358-3.455,4.074
		c-0.479,1.761-0.717,3.73-0.717,5.909c0,1.94,0.148,3.701,0.448,5.282c0.329,1.702,1.047,3.045,2.153,4.029
		c1.106,0.985,2.513,1.478,4.217,1.478c1.437,0,2.76-0.369,3.971-1.109C189.095,26.316,190.014,25.325,190.643,24.082z"/>
	<path d="M218.951,20.403c0,2.633-0.359,5.1-1.077,7.402c-0.897,2.901-2.273,5.265-4.128,7.089
		c-2.123,2.063-4.576,3.096-7.357,3.096h-14.222c2.272-2.423,4.038-5.608,5.294-9.556c1.137-3.529,1.705-7.148,1.705-10.857
		c0-3.29-0.494-6.026-1.48-8.21c-0.12-0.27-0.823-1.376-2.109-3.32c-0.928-1.346-1.375-2.542-1.346-3.589V2.144h11.799
		c2.543,0,4.98,1.241,7.313,3.724c1.944,2.094,3.394,4.502,4.353,7.224C218.531,15.454,218.951,17.891,218.951,20.403z
		 M205.088,8.155c-0.599,2.064-1.107,5.145-1.525,9.242c-0.359,3.919-0.539,7.089-0.539,9.512c0,2.542,0.898,3.813,2.692,3.813
		c2.063,0,3.634-1.167,4.711-3.5c0.808-1.794,1.211-3.858,1.211-6.191C211.638,14.84,209.454,10.549,205.088,8.155z"/>
</g>
</svg>
